# xmcd
#
# Track frame offsets:
#  150
#  14062
#  33337
#  48435
#  62585
#  77537
#  91220
#  141517
#  158575
#  175822
#
# Disc length: 2648 seconds
#
# Revision: 3
# Processed by: cddbd v1.4PL0 Copyright (c) Steve Scherf et al.
# Submitted via: AltoMP3_Maker 3.0
#
DISCID=790a560a
DTITLE=Pirates Of The Mississippi - Walk The Plank
DYEAR=1900
DGENRE=
TTITLE0=Too Much
TTITLE1=I Wouldn't Have It Any Other Way
TTITLE2=Til I'm Holding You Again
TTITLE3=Georgia Peaches
TTITLE4=Fighting For You
TTITLE5=This Ain't The Denver I Remember
TTITLE6=Nashville Nights/Redneck Blues
TTITLE7=The Storm
TTITLE8=Uncommon Man
TTITLE9=Honky Tonk Highway
EXTD=
EXTT0=
EXTT1=
EXTT2=
EXTT3=
EXTT4=
EXTT5=
EXTT6=
EXTT7=
EXTT8=
EXTT9=
PLAYORDER=
